<svg width="22" height="20" viewBox="0 0 22 20" fill="none" xmlns="http://www.w3.org/2000/svg">
<path fill-rule="evenodd" clip-rule="evenodd" d="M15.4422 3.16219e-07H6.55785H6.55783C5.61354 -1.05588e-05 4.84431 -1.94166e-05 4.21978 0.0510066C3.5743 0.103744 2.99586 0.215932 2.45704 0.490472C1.61031 0.921902 0.921902 1.61031 0.490472 2.45704C0.215932 2.99586 0.103744 3.5743 0.0510066 4.21978C-1.94176e-05 4.8443 -1.05588e-05 5.61354 3.16219e-07 6.55783V6.55785V9.44215V9.44217C-1.05588e-05 10.3865 -1.94166e-05 11.1557 0.0510066 11.7802C0.103744 12.4257 0.215932 13.0041 0.490472 13.543C0.921902 14.3897 1.61031 15.0781 2.45704 15.5095C2.99586 15.7841 3.5743 15.8963 4.21978 15.949C4.84429 16 5.6135 16 6.55776 16H6.55788H8.2L5.90983 18.8627C5.54317 19.321 5.86949 20 6.45644 20H15.5436C16.1305 20 16.4568 19.321 16.0902 18.8627L13.8 16H15.4421H15.4422C16.3865 16 17.1557 16 17.7802 15.949C18.4257 15.8963 19.0041 15.7841 19.543 15.5095C20.3897 15.0781 21.0781 14.3897 21.5095 13.543C21.7841 13.0041 21.8963 12.4257 21.949 11.7802C22 11.1557 22 10.3865 22 9.44217V6.55783C22 5.61354 22 4.8443 21.949 4.21978C21.8963 3.5743 21.7841 2.99586 21.5095 2.45704C21.0781 1.61031 20.3897 0.921902 19.543 0.490472C19.0041 0.215932 18.4257 0.103744 17.7802 0.0510066C17.1557 -1.94176e-05 16.3865 -1.05588e-05 15.4422 3.16219e-07H15.4422ZM3.36502 2.27248C3.5749 2.16555 3.86085 2.087 4.38264 2.04436C4.91611 2.00078 5.60341 2 6.6 2H15.4C16.3966 2 17.0839 2.00078 17.6174 2.04436C18.1392 2.087 18.4251 2.16555 18.635 2.27248C19.1054 2.51217 19.4878 2.89462 19.7275 3.36502C19.8345 3.5749 19.913 3.86085 19.9556 4.38264C19.9992 4.91611 20 5.60341 20 6.6V9.4C20 10.3966 19.9992 11.0839 19.9556 11.6174C19.913 12.1392 19.8345 12.4251 19.7275 12.635C19.4878 13.1054 19.1054 13.4878 18.635 13.7275C18.4251 13.8345 18.1392 13.913 17.6174 13.9556C17.0839 13.9992 16.3966 14 15.4 14H6.6C5.60341 14 4.91611 13.9992 4.38264 13.9556C3.86085 13.913 3.5749 13.8345 3.36502 13.7275C2.89462 13.4878 2.51217 13.1054 2.27248 12.635C2.16555 12.4251 2.087 12.1392 2.04436 11.6174C2.00078 11.0839 2 10.3966 2 9.4V6.6C2 5.60341 2.00078 4.91611 2.04436 4.38264C2.087 3.86085 2.16555 3.5749 2.27248 3.36502C2.51217 2.89462 2.89462 2.51217 3.36502 2.27248Z" fill="white"/>
</svg>
